#N canvas 134 378 1328 591 10;
#X obj 283 275 sendOSC;
#X msg 309 96 disconnect;
#X floatatom 272 302 5 0 0 0 - - -;
#X floatatom 320 304 5 0 0 0 - - -;
#X msg 278 34 connect localhost 12001;
#X msg 293 61 connect 192.168.1.100 12000;
#X msg 558 229 send /hearbeat \$1;
#X floatatom 650 110 4 0 0 0 - - -;
#X msg 596 77 stop;
#X text 641 75 zero or "stop" to stop;
#X text 584 51 nonzero number or "bang" to start;
#X msg 548 52 bang;
#X msg 597 200 0;
#X msg 557 201 1;
#X obj 556 142 metro 1500;
#X obj 595 174 delay 400;
#X obj 647 133 + 1500;
#X text 681 109 offset in the heartbeat frequency;
#X connect 0 0 2 0;
#X connect 0 1 3 0;
#X connect 1 0 0 0;
#X connect 4 0 0 0;
#X connect 5 0 0 0;
#X connect 6 0 0 0;
#X connect 7 0 16 0;
#X connect 8 0 14 0;
#X connect 11 0 14 0;
#X connect 12 0 6 0;
#X connect 13 0 6 0;
#X connect 14 0 13 0;
#X connect 14 0 15 0;
#X connect 15 0 12 0;
#X connect 16 0 14 1;
