#N canvas 30 182 689 504 10;
#X obj 90 402 sendOSC;
#X msg 187 368 disconnect;
#X floatatom 85 443 5 0 0 0 - - -;
#X floatatom 133 445 5 0 0 0 - - -;
#X msg 183 320 connect localhost 12001;
#X msg 185 346 connect 192.168.1.100 12000;
#X msg 116 209 1;
#X obj 115 150 metro 1500;
#X obj 154 182 delay 400;
#X floatatom 349 130 4 0 0 0 - - -;
#X obj 349 154 + 60;
#X floatatom 348 249 5 0 0 0 - - -;
#X obj 53 202 bng 15 250 50 0 empty empty empty 17 7 0 10 -262144 -1
-1;
#X obj 347 194 / 60;
#X obj 347 219 * 1000;
#X text 392 126 frequency offset;
#X obj 446 283 snapshot~;
#X floatatom 443 386 5 0 0 0 - - -;
#X floatatom 416 216 5 0 0 0 - - -;
#X obj 502 256 metro 100;
#X obj 443 331 / 2;
#X obj 445 309 - 1;
#X obj 440 357 abs;
#X obj 105 76 s msg;
#X obj 117 119 r msg;
#X obj 502 222 r msg;
#X obj 102 34 tgl 15 0 empty empty empty 17 7 0 10 -262144 -1 -1 0
1;
#X text 127 30 start/stop;
#X obj 350 74 loadbang;
#X msg 346 101 1;
#X obj 443 254 osc~ 1;
#N canvas 424 104 548 519 loadbang 0;
#X obj 8 20 loadbang;
#X msg 8 48 \; pd dsp 1 \;;
#X connect 0 0 1 0;
#X restore 519 20 pd loadbang;
#X text 586 424 raw data;
#X text 258 284 bang;
#X msg 436 422 send /ecg/raw \$1;
#X msg 111 282 send /ecg/bang \$1;
#X connect 0 0 2 0;
#X connect 0 1 3 0;
#X connect 1 0 0 0;
#X connect 4 0 0 0;
#X connect 5 0 0 0;
#X connect 6 0 35 0;
#X connect 7 0 6 0;
#X connect 7 0 8 0;
#X connect 7 0 12 0;
#X connect 9 0 10 0;
#X connect 10 0 13 0;
#X connect 13 0 14 0;
#X connect 13 0 18 0;
#X connect 14 0 11 0;
#X connect 16 0 21 0;
#X connect 17 0 34 0;
#X connect 18 0 30 0;
#X connect 19 0 16 0;
#X connect 20 0 22 0;
#X connect 21 0 20 0;
#X connect 22 0 17 0;
#X connect 24 0 7 0;
#X connect 25 0 19 0;
#X connect 26 0 23 0;
#X connect 28 0 29 0;
#X connect 29 0 9 0;
#X connect 30 0 16 0;
#X connect 34 0 0 0;
#X connect 35 0 0 0;
