#N canvas 519 49 991 781 10;
#X msg 678 657 disconnect;
#X msg 190 353 1;
#X obj 189 294 metro 1500;
#X obj 228 326 delay 400;
#X floatatom 438 307 4 0 0 0 - - -, f 4;
#X obj 438 331 + 60;
#X floatatom 437 425 5 0 0 0 - - -, f 5;
#X obj 127 346 bng 15 250 50 0 empty empty empty 17 7 0 10 -262144
-1 -1;
#X obj 436 371 / 60;
#X obj 436 396 * 1000;
#X text 481 303 frequency offset;
#X obj 718 340 snapshot~;
#X floatatom 715 443 5 0 0 0 - - -, f 5;
#X floatatom 688 273 5 0 0 0 - - -, f 5;
#X obj 774 313 metro 100;
#X obj 715 388 / 2;
#X obj 717 366 - 1;
#X obj 712 414 abs;
#X obj 105 76 s msg;
#X obj 191 263 r msg;
#X obj 774 279 r msg;
#X obj 102 34 tgl 15 0 empty empty empty 17 7 0 10 -262144 -1 -1 0
1;
#X text 127 30 start/stop;
#X obj 439 251 loadbang;
#X msg 435 278 1;
#X obj 715 311 osc~ 1;
#N canvas 424 104 548 519 loadbang 0;
#X obj 8 20 loadbang;
#X msg 8 48 \; pd dsp 1 \;;
#X connect 0 0 1 0;
#X restore 612 82 pd loadbang;
#X msg 676 635 connect 192.168.1.104 12000;
#X obj 454 687 netsend -u -b;
#X obj 447 722 tgl 15 0 empty empty empty 17 7 0 10 -262144 -1 -1 0
1;
#X obj 439 494 oscformat /ecg/gap;
#X obj 189 505 list trim;
#X obj 433 519 list prepend send;
#X obj 433 544 list trim;
#X obj 712 508 list prepend send;
#X obj 712 533 list trim;
#X msg 674 610 connect localhost 12000;
#X obj 713 476 oscformat /ecg/raw;
#X obj 114 446 s print-osc;
#X obj 351 521 s print-osc;
#X obj 629 510 s print-osc;
#X obj 151 594 r print-osc;
#X obj 150 616 oscparse;
#X obj 150 638 print;
#X obj 219 387 bng 15 250 50 0 empty empty empty 17 7 0 10 -262144
-1 -1;
#X obj 189 420 oscformat /ecg/bng;
#X obj 193 460 list prepend send;
#X connect 0 0 28 0;
#X connect 1 0 45 0;
#X connect 2 0 1 0;
#X connect 2 0 3 0;
#X connect 2 0 7 0;
#X connect 4 0 5 0;
#X connect 5 0 8 0;
#X connect 6 0 30 0;
#X connect 8 0 9 0;
#X connect 8 0 13 0;
#X connect 9 0 6 0;
#X connect 11 0 16 0;
#X connect 12 0 37 0;
#X connect 13 0 25 0;
#X connect 14 0 11 0;
#X connect 15 0 17 0;
#X connect 16 0 15 0;
#X connect 17 0 12 0;
#X connect 19 0 2 0;
#X connect 20 0 14 0;
#X connect 21 0 18 0;
#X connect 23 0 24 0;
#X connect 24 0 4 0;
#X connect 25 0 11 0;
#X connect 27 0 28 0;
#X connect 28 0 29 0;
#X connect 30 0 32 0;
#X connect 30 0 39 0;
#X connect 31 0 28 0;
#X connect 32 0 33 0;
#X connect 33 0 28 0;
#X connect 34 0 35 0;
#X connect 36 0 28 0;
#X connect 37 0 34 0;
#X connect 37 0 40 0;
#X connect 41 0 42 0;
#X connect 42 0 43 0;
#X connect 44 0 45 0;
#X connect 45 0 38 0;
#X connect 45 0 46 0;
#X connect 46 0 31 0;
